<svg xmlns="http://www.w3.org/2000/svg" xmlns:html="http://www.w3.org/1999/xhtml" xmlns:xlink="http://www.w3.org/1999/xlink" version="1.1"><style>
    .blocklyText {
        fill: #fff;
        font-family: "Helvetica Neue", Helvetica, sans-serif;
        font-size: 12pt;
        font-weight: 500;
    }
    .blocklyNonEditableText>text, .blocklyEditableText>text {
        fill: #575E75;
    }
    .blocklyDropdownText {
        fill: #fff !important;
    }
    </style><g class="blocklyBlockCanvas" transform="translate(-65.33333333333331,-259.3333333333376) "><g data-id="}|ZCA{85KtYC{uA)+*(l" class="blocklyDraggable blocklySelected" data-shapes="stack" data-category="sounds" transform="translate(65.33333333333331,277.3333333333376)"><path class="blocklyPath blocklyBlockBackground" stroke="#BD42BD" fill="#CF63CF" fill-opacity="1" d="m 0,4 A 4,4 0 0,1 4,0 H 12 c 2,0 3,1 4,2 l 4,4 c 1,1 2,2 4,2 h 12 c 2,0 3,-1 4,-2 l 4,-4 c 1,-1 2,-2 4,-2 H 124.63999938964844 a 4,4 0 0,1 4,4 v 40  a 4,4 0 0,1 -4,4 H 48   c -2,0 -3,1 -4,2 l -4,4 c -1,1 -2,2 -4,2 h -12 c -2,0 -3,-1 -4,-2 l -4,-4 c -1,-1 -2,-2 -4,-2 H 4 a 4,4 0 0,1 -4,-4 z"></path><text class="blocklyText" y="2" text-anchor="middle" dominant-baseline="middle" dy="0" x="56.31999969482422" transform="translate(8, 24) ">stop all sounds</text></g></g></svg>