<svg xmlns="http://www.w3.org/2000/svg" xmlns:html="http://www.w3.org/1999/xhtml" xmlns:xlink="http://www.w3.org/1999/xlink" version="1.1"><style>
    .blocklyText {
        fill: #fff;
        font-family: "Helvetica Neue", Helvetica, sans-serif;
        font-size: 12pt;
        font-weight: 500;
    }
    .blocklyNonEditableText>text, .blocklyEditableText>text {
        fill: #575E75;
    }
    .blocklyDropdownText {
        fill: #fff !important;
    }
    </style><g class="blocklyBlockCanvas" transform="translate(-426.81481481481484,-149.11111111111097) "><g data-id="o@[hc)@@cJuh_T`EvuU#" class="blocklyDraggable blocklySelected" data-shapes="stack" data-category="looks" transform="translate(426.81481481481484,167.11111111111097)"><path class="blocklyPath blocklyBlockBackground" stroke="#774DCB" fill="#9966FF" fill-opacity="1" d="m 0,4 A 4,4 0 0,1 4,0 H 12 c 2,0 3,1 4,2 l 4,4 c 1,1 2,2 4,2 h 12 c 2,0 3,-1 4,-2 l 4,-4 c 1,-1 2,-2 4,-2 H 158.8118553161621 a 4,4 0 0,1 4,4 v 40  a 4,4 0 0,1 -4,4 H 48   c -2,0 -3,1 -4,2 l -4,4 c -1,1 -2,2 -4,2 h -12 c -2,0 -3,-1 -4,-2 l -4,-4 c -1,-1 -2,-2 -4,-2 H 4 a 4,4 0 0,1 -4,-4 z"></path><g data-id="=%bIA1^4_**cg3lW+O`{" data-argument-type="text" data-shapes="argument round" transform="translate(52.81333541870117,8)"><path class="blocklyPath blocklyBlockBackground" stroke="#774DCB" fill="#FFFFFF" fill-opacity="1" d="m 0,0 m 16,0 H 85.99851989746094 a 16 16 0 0 1 0 32 H 16 a 16 16 0 0 1 0 -32 z"></path><g class="blocklyEditableText" transform="translate(8, 0) " style="cursor: text;"><text class="blocklyText" x="42.99925994873047" y="18" dominant-baseline="middle" dy="0" text-anchor="middle">Interesting</text></g></g><text class="blocklyText" y="2" text-anchor="middle" dominant-baseline="middle" dy="0" x="18.406667709350586" transform="translate(8, 24) ">think</text><path class="blocklyPath" style="visibility: hidden" d="" fill="#774DCB"></path></g></g></svg>